<?xml version="1.0" encoding="UTF-8" standalone="no"?>
<svg
   xmlns:dc="http://purl.org/dc/elements/1.1/"
   xmlns:cc="http://creativecommons.org/ns#"
   xmlns:rdf="http://www.w3.org/1999/02/22-rdf-syntax-ns#"
   xmlns:svg="http://www.w3.org/2000/svg"
   xmlns="http://www.w3.org/2000/svg"
   xmlns:xlink="http://www.w3.org/1999/xlink"
   xmlns:sodipodi="http://sodipodi.sourceforge.net/DTD/sodipodi-0.dtd"
   xmlns:inkscape="http://www.inkscape.org/namespaces/inkscape"
   version="1.0"
   width="512"
   height="512"
   id="source-logo"
   sodipodi:docname="GoldSrc.svg"
   inkscape:version="0.92.4 (5da689c313, 2019-01-14)">
  <metadata
     id="metadata16">
    <rdf:RDF>
      <cc:Work
         rdf:about="">
        <dc:format>image/svg+xml</dc:format>
        <dc:type
           rdf:resource="http://purl.org/dc/dcmitype/StillImage" />
        <dc:title></dc:title>
      </cc:Work>
    </rdf:RDF>
  </metadata>
  <defs
     id="defs14">
    <linearGradient
       inkscape:collect="always"
       id="linearGradient925">
      <stop
         style="stop-color:#fa351a;stop-opacity:1"
         offset="0"
         id="stop921" />
      <stop
         style="stop-color:#f04900;stop-opacity:1"
         offset="1"
         id="stop923" />
    </linearGradient>
    <linearGradient
       inkscape:collect="always"
       id="linearGradient888">
      <stop
         style="stop-color:#fa9b1a;stop-opacity:1"
         offset="0"
         id="stop884" />
      <stop
         style="stop-color:#ff4727;stop-opacity:0.97979796"
         offset="1"
         id="stop886" />
    </linearGradient>
    <radialGradient
       inkscape:collect="always"
       xlink:href="#linearGradient888"
       id="radialGradient890"
       cx="746.37177"
       cy="262.56534"
       fx="746.37177"
       fy="262.56534"
       r="222.48202"
       gradientUnits="userSpaceOnUse"
       gradientTransform="translate(-492.5747,-2.4205145)" />
    <radialGradient
       inkscape:collect="always"
       xlink:href="#linearGradient925"
       id="radialGradient927"
       cx="746.33511"
       cy="262.62393"
       fx="746.33511"
       fy="262.62393"
       r="211.09668"
       gradientTransform="matrix(1,0,0,0.99222347,-492.5747,-0.37821249)"
       gradientUnits="userSpaceOnUse" />
  </defs>
  <sodipodi:namedview
     pagecolor="#ffffff"
     bordercolor="#666666"
     borderopacity="1"
     objecttolerance="10"
     gridtolerance="10"
     guidetolerance="10"
     inkscape:pageopacity="0"
     inkscape:pageshadow="2"
     inkscape:window-width="640"
     inkscape:window-height="480"
     id="namedview12"
     showgrid="false"
     inkscape:zoom="0.58426156"
     inkscape:cx="243.40863"
     inkscape:cy="278.35606"
     inkscape:current-layer="source-logo"
     inkscape:pagecheckerboard="true"
     inkscape:snap-text-baseline="true">
    <inkscape:grid
       type="xygrid"
       id="grid941" />
  </sodipodi:namedview>
  <circle
     style="fill:url(#radialGradient890);fill-opacity:1;stroke:#fa9b1a;stroke-width:7.66643667;stroke-miterlimit:4;stroke-dasharray:none;stroke-opacity:1"
     id="path827"
     cx="253.79707"
     cy="260.14484"
     r="218.6488" />
  <path
     style="fill:url(#radialGradient927);fill-opacity:1;stroke:none;stroke-width:1.08652651;stroke-linejoin:miter;stroke-miterlimit:4;stroke-dasharray:none;stroke-opacity:1"
     d="M 253.75944,50.748334 A 211.09714,209.45528 0 0 0 42.663731,260.20342 211.09714,209.45528 0 0 0 253.75944,469.6585 211.09714,209.45528 0 0 0 464.85709,260.20342 211.09714,209.45528 0 0 0 253.75944,50.748334 Z m 17.98632,79.916026 a 134.40857,134.40857 0 0 1 114.37696,132.73633 134.40857,134.40857 0 0 1 -8.71485,47.14843 l -7.35547,-21.53125 -31.16992,10.89063 z m -97.73437,23.26953 -0.35938,34.81836 33.79688,0.75195 4.88086,13.51758 -75.85352,129.27539 a 134.40857,134.40857 0 0 1 -19.17187,-68.89648 134.40857,134.40857 0 0 1 56.70703,-109.4668 z m 75.87109,137.71289 36.92383,101.45898 a 134.40857,134.40857 0 0 1 -35.09375,4.70508 134.40857,134.40857 0 0 1 -67.24609,-18.17773 l 13.21875,-0.11328 z"
     id="path918"
     inkscape:connector-curvature="0" />
  <path
     style="fill:#000000;fill-opacity:1;stroke:none;stroke-width:3.01012135;stroke-miterlimit:4;stroke-dasharray:none;stroke-opacity:1"
     d="M 253.97086,465.20969 C 141.02224,465.20951 51.459331,375.04124 51.459151,261.32922 51.459331,147.61717 141.02223,57.448901 253.97086,57.44872 c 112.9494,-9.16e-4 202.5135,90.16767 202.51368,203.8805 -1.8e-4,113.71281 -89.56429,203.88138 -202.51368,203.88047 z m -2.17382,-47.43172 c 84.81613,4.8e-4 157.5736,-73.24788 157.57421,-158.63728 4.7e-4,-85.39017 -72.75732,-158.63973 -157.57421,-158.63926 -84.8169,-4.7e-4 -157.574689,73.24908 -157.574219,158.63926 6.1e-4,85.3894 72.758089,158.63776 157.574219,158.63728 z"
     id="path827-6-2"
     inkscape:connector-curvature="0"
     sodipodi:nodetypes="cccccccccc" />
  <path
     style="fill:#000000;fill-opacity:1;stroke:#f54a3f;stroke-width:0;stroke-linecap:butt;stroke-linejoin:miter;stroke-miterlimit:4;stroke-dasharray:none;stroke-opacity:1"
     d="m 224.03146,169.57206 h -31.9427 v -33.76799 h 58.86583 l 73.92453,189.83089 30.1174,-11.86443 11.40811,31.94269 -67.07967,24.64151 -45.1761,-120.4696 -67.53599,108.60517 h -44.26345 l 94.45912,-158.34451 z"
     id="path882"
     inkscape:connector-curvature="0" />
  <text
     xml:space="preserve"
     style="font-style:normal;font-weight:normal;font-size:48.6676712px;line-height:1.25;font-family:sans-serif;letter-spacing:0px;word-spacing:0px;fill:#ffffff;fill-opacity:1;stroke:none;stroke-width:0.97480172"
     id="text939"
     transform="matrix(0.7802019,0.25846847,-0.25846847,0.7802019,123.44242,-8.9265363)"><textPath
       xlink:href="#path827-6-2"
       id="textPath4692"><tspan
   style="font-style:normal;font-variant:normal;font-weight:bold;font-stretch:normal;font-family:'Noto Sans';-inkscape-font-specification:'Noto Sans Bold';letter-spacing:6.82361174px;stroke-width:0.97480172"
   rotate="0 0 0 0 0 0 0 0 0 0 0 0 0 0 0 0 0 0 0 0 0 0 0 0 0 0 0 0 0 0 0 0 0 0 0 0"
   id="tspan937">POWERED  BY  THE  HALF-LIFE  ENGINE</tspan></textPath></text>
  <path
     style="fill:#ffffff;fill-opacity:1;stroke:none;stroke-width:1px;stroke-linecap:butt;stroke-linejoin:miter;stroke-opacity:1"
     d="m 241.74889,422.74353 11.58606,18.71598 -23.72535,1.98372 9.71877,17.08413 14.00658,-19.06785 14.73703,19.37042 8.91489,-17.17275 -23.65192,-2.19767 10.8037,-19.62367 z"
     id="path4695"
     inkscape:connector-curvature="0"
     sodipodi:nodetypes="cccccccccc" />
  <circle
     style="fill:#ffffff;fill-opacity:1;stroke:#000000;stroke-width:2.30055785;stroke-linejoin:miter;stroke-miterlimit:4;stroke-dasharray:none;stroke-opacity:1"
     id="path4697"
     cx="253.24635"
     cy="441.50256"
     r="7.3087006" />
</svg>
