<?xml version="1.0" encoding="UTF-8" standalone="no"?>
<svg
   xmlns:dc="http://purl.org/dc/elements/1.1/"
   xmlns:cc="http://creativecommons.org/ns#"
   xmlns:rdf="http://www.w3.org/1999/02/22-rdf-syntax-ns#"
   xmlns:svg="http://www.w3.org/2000/svg"
   xmlns="http://www.w3.org/2000/svg"
   xmlns:sodipodi="http://sodipodi.sourceforge.net/DTD/sodipodi-0.dtd"
   xmlns:inkscape="http://www.inkscape.org/namespaces/inkscape"
   version="1.0"
   width="512"
   height="512"
   id="source-logo"
   sodipodi:docname="Source.svg"
   inkscape:version="0.92.4 (5da689c313, 2019-01-14)">
  <metadata
     id="metadata16">
    <rdf:RDF>
      <cc:Work
         rdf:about="">
        <dc:format>image/svg+xml</dc:format>
        <dc:type
           rdf:resource="http://purl.org/dc/dcmitype/StillImage" />
        <dc:title></dc:title>
      </cc:Work>
    </rdf:RDF>
  </metadata>
  <defs
     id="defs14" />
  <sodipodi:namedview
     pagecolor="#ffffff"
     bordercolor="#666666"
     borderopacity="1"
     objecttolerance="10"
     gridtolerance="10"
     guidetolerance="10"
     inkscape:pageopacity="0"
     inkscape:pageshadow="2"
     inkscape:window-width="640"
     inkscape:window-height="480"
     id="namedview12"
     showgrid="false"
     inkscape:zoom="0.77478546"
     inkscape:cx="191.05912"
     inkscape:cy="252.9733"
     inkscape:current-layer="source-logo" />
  <path
     id="s"
     d="m 115.47496,329.79798 c 0.4792,29.84937 25.5277,41.89387 52.49305,41.89387 19.73741,0 44.77837,-7.70544 44.77837,-31.79479 0,-20.69789 -28.41273,-27.93435 -77.53269,-38.52158 -39.490625,-8.67362 -78.96807,-22.63467 -78.96807,-66.45599 0,-63.55933 54.89826,-79.93566 108.34824,-79.93566 54.41897,0 104.49807,18.29196 109.79712,79.44775 h -65.00601 c -1.92631,-26.47556 -22.15705,-33.7013 -46.70596,-33.7013 -15.41872,0 -38.05348,2.88312 -38.05348,23.11246 0,24.56004 38.53275,27.92286 77.52868,37.0847 39.97232,9.1414 78.98243,23.59142 78.98243,69.82776 0,65.48716 -56.82392,86.67253 -113.64781,86.67253 -57.7815,0 -114.116312,-21.66522 -117.021771,-87.64041 h 65.007901 z"
     style="fill:#666666;stroke-width:2.8051815"
     inkscape:connector-curvature="0" />
  <path
     id="corner"
     d="m 430.08212,59.213004 c -11.35545,-4.656889 -21.8492,-5.20202 -34.60426,-5.041193 l -216.16629,1.18586 C 134.70354,53.089815 90.730956,64.014444 52.722795,85.895044 l 0.03923,0.0449 c -6.798137,3.70537 -11.424297,10.929 -11.424297,19.212986 0,12.07392 9.798225,21.86501 21.864331,21.86501 6.298126,0 11.951948,-2.67733 15.945226,-6.93366 47.526755,-25.472666 105.615385,-30.371036 159.265595,-8.33825 95.29427,39.11701 140.99764,148.48293 101.8716,243.76999 -10.49387,25.55392 -26.07691,47.50231 -45.05311,65.25443 l 0.1667,0.2348 c -6.49408,3.7885 -10.87907,10.82026 -10.87907,18.88752 0,12.07342 9.80471,21.85697 21.88002,21.85697 7.76377,0 14.58272,-4.07471 18.46214,-10.20705 23.12054,-21.73678 42.07505,-48.60686 54.89793,-79.83246 0.88386,-2.13229 89.45019,-217.86023 89.67664,-218.43612 15.12092,-36.81842 -2.53338,-78.947046 -39.35366,-94.061196 z"
     style="fill:#f79a10;stroke-width:2.03713322"
     inkscape:connector-curvature="0" />
</svg>
