<?xml version="1.0" encoding="UTF-8" standalone="no"?>
<svg
   xmlns:dc="http://purl.org/dc/elements/1.1/"
   xmlns:cc="http://creativecommons.org/ns#"
   xmlns:rdf="http://www.w3.org/1999/02/22-rdf-syntax-ns#"
   xmlns:svg="http://www.w3.org/2000/svg"
   xmlns="http://www.w3.org/2000/svg"
   xmlns:sodipodi="http://sodipodi.sourceforge.net/DTD/sodipodi-0.dtd"
   xmlns:inkscape="http://www.inkscape.org/namespaces/inkscape"
   id="Layer_1"
   data-name="Layer 1"
   viewBox="0 0 336 336"
   version="1.1"
   sodipodi:docname="Unreal.svg"
   inkscape:version="0.92.4 (5da689c313, 2019-01-14)">
  <metadata
     id="metadata13">
    <rdf:RDF>
      <cc:Work
         rdf:about="">
        <dc:format>image/svg+xml</dc:format>
        <dc:type
           rdf:resource="http://purl.org/dc/dcmitype/StillImage" />
      </cc:Work>
    </rdf:RDF>
  </metadata>
  <sodipodi:namedview
     pagecolor="#ffffff"
     bordercolor="#666666"
     borderopacity="1"
     objecttolerance="10"
     gridtolerance="10"
     guidetolerance="10"
     inkscape:pageopacity="0"
     inkscape:pageshadow="2"
     inkscape:window-width="640"
     inkscape:window-height="480"
     id="namedview11"
     showgrid="false"
     inkscape:zoom="2.2857143"
     inkscape:cx="130.99705"
     inkscape:cy="174.03845"
     inkscape:current-layer="Layer_1" />
  <defs
     id="defs4">
    <style
       id="style2">.cls-1{fill:#fff;fill-rule:evenodd;}</style>
  </defs>
  <ellipse
     style="fill:#3b3b3b;fill-opacity:1;stroke:#000000;stroke-width:5.79978561;stroke-miterlimit:4;stroke-dasharray:none;stroke-opacity:1"
     id="path820"
     cx="168"
     cy="168.3898"
     rx="149.18152"
     ry="147.76064" />
  <path
     class="cls-1"
     d="m 255.21666,188.89852 v 0 c -2.53182,12.04727 -13.78442,42.97217 -49.67474,59.71643 l -14.41059,-16.00924 -24.32011,24.14831 a 89.748497,88.651378 0 0 1 -70.98208,-35.96252 34.964708,34.537286 0 0 0 7.94941,1.47901 c 3.98378,0.0717 8.29425,-1.37144 8.29425,-7.97772 V 149.12641 A 10.889605,10.756486 0 0 0 98.415421,138.36993 c -11.261666,2.56363 -20.254666,30.31536 -20.254666,30.31536 a 89.331063,88.239046 0 0 1 30.917405,-67.62245 90.610591,89.502934 0 0 1 45.61837,-20.786909 c -12.29618,6.920006 -19.202,18.205353 -19.202,27.671069 0,15.23835 9.29247,13.39182 12.04209,11.15089 v 87.9522 a 14.156487,13.983433 0 0 0 1.81493,3.09249 13.149199,12.988458 0 0 0 10.75348,5.37824 c 9.30154,0 21.37086,-10.48757 21.37086,-10.48757 v -71.19002 c 0,-7.24269 -5.52648,-15.9913 -11.06203,-18.99416 0,0 10.2453,-1.79274 18.14935,4.18607 v 0 a 67.72427,66.896384 0 0 1 4.7279,-5.13622 c 18.44881,-17.882664 35.8268,-22.974068 50.3009,-25.51977 v 0 c 0,0 -26.31655,20.42836 -26.31655,47.83947 0,20.38355 0.53541,70.09644 0.53541,70.09644 9.76434,9.31333 24.28382,-4.14125 37.40579,-17.41654 z"
     id="path6"
     style="fill:#ffffff;fill-opacity:1;fill-rule:evenodd;stroke:none;stroke-width:0.90190345;stroke-opacity:1"
     inkscape:connector-curvature="0" />
  <path
     class="cls-1"
     d="M 168,23.033493 A 146.77374,144.97951 0 1 0 314.77374,168.01301 146.77374,144.97951 0 0 0 168,23.033493 Z m 0,284.150527 A 140.90242,139.17997 0 1 1 308.90242,168.01301 140.90242,139.17997 0 0 1 168,307.19298 Z"
     id="path8"
     style="fill:#ffffff;fill-opacity:1;fill-rule:evenodd;stroke:#ffffff;stroke-width:3.86652374;stroke-miterlimit:4;stroke-dasharray:none;stroke-opacity:1"
     inkscape:connector-curvature="0" />
</svg>
